<?xml version="1.0" encoding="UTF-8" standalone="no"?>
<!-- Created with Inkscape (http://www.inkscape.org/) -->

<svg
   xmlns:dc="http://purl.org/dc/elements/1.1/"
   xmlns:cc="http://creativecommons.org/ns#"
   xmlns:rdf="http://www.w3.org/1999/02/22-rdf-syntax-ns#"
   xmlns:svg="http://www.w3.org/2000/svg"
   xmlns="http://www.w3.org/2000/svg"
   xmlns:sodipodi="http://sodipodi.sourceforge.net/DTD/sodipodi-0.dtd"
   xmlns:inkscape="http://www.inkscape.org/namespaces/inkscape"
   viewBox="20 37 150 150"
   version="1.1"
   id="svg8"
   inkscape:version="0.92.2 (unknown)"
   sodipodi:docname="icone-arla.svg">
  <defs
     id="defs2" />
  <sodipodi:namedview
     id="base"
     pagecolor="#ffffff"
     bordercolor="#666666"
     borderopacity="1.0"
     inkscape:pageopacity="0.0"
     inkscape:pageshadow="2"
     inkscape:zoom="0.35"
     inkscape:cx="-95.714286"
     inkscape:cy="560"
     inkscape:document-units="mm"
     inkscape:current-layer="layer1"
     showgrid="false"
     inkscape:window-width="1366"
     inkscape:window-height="691"
     inkscape:window-x="0"
     inkscape:window-y="24"
     inkscape:window-maximized="1" />
  <metadata
     id="metadata5">
    <rdf:RDF>
      <cc:Work
         rdf:about="">
        <dc:format>image/svg+xml</dc:format>
        <dc:type
           rdf:resource="http://purl.org/dc/dcmitype/StillImage" />
        <dc:title></dc:title>
      </cc:Work>
    </rdf:RDF>
  </metadata>
  <g
     inkscape:label="Camada 1"
     inkscape:groupmode="layer"
     id="layer1">
    <g
       id="g4652"
       transform="matrix(0.26458333,0,0,0.26458333,28.758924,32.728308)">
      <path
         id="path4639"
         d="m 304.463,427.553 c -3.7,-18.886 -6.986,-34.338 -7.319,-34.338 0,0 0,0 -1.063,0 -8.998,0 -16.459,0 -16.459,0 -19.235,0 -38.013,15.452 -41.705,34.338 l -20.351,103.912 c -3.701,18.896 9.024,34.338 28.26,34.338 h 50.72 c 19.245,0 31.969,-15.442 28.26,-34.338 z"
         inkscape:connector-curvature="0"
         style="fill:none;stroke:white;stroke-width:22;stroke-opacity:1" />
      <path
         id="path4641"
         d="m 491.072,191.396 c 0,-40.883 -33.142,-74.023 -74.023,-74.023 -5.339,0 -10.528,0.59 -15.552,1.663 1.146,-5.256 1.78,-10.703 1.78,-16.3 0,-42.313 -34.298,-76.609 -76.61,-76.609 -30.363,0 -56.518,17.706 -68.917,43.32 -12.383,-8.816 -27.486,-14.055 -43.852,-14.055 -33.848,0 -62.505,22.221 -72.203,52.875 -4.873,-1.813 -10.08,-2.944 -15.585,-2.944 -24.716,0 -44.758,20.043 -44.758,44.759 0,11.418 4.408,21.73 11.443,29.639 -21.206,11.958 -35.543,34.662 -35.543,60.742 0,25.863 14.121,48.392 35.044,60.427 -3.692,8.382 -5.78,17.63 -5.78,27.376 0,37.557 30.438,67.995 67.994,67.995 14.48,0 27.885,-4.559 38.913,-12.275 6.122,13.306 19.494,22.604 35.111,22.604 12.85,0 24.151,-6.32 31.195,-15.95 4.034,2.569 8.791,4.108 13.929,4.108 5.806,0 11.112,-1.964 15.436,-5.174 7.518,10.271 19.568,17.016 33.266,17.016 18.695,0 34.313,-12.508 39.42,-29.54 7.916,4.532 17.08,7.161 26.86,7.161 29.956,0 54.231,-24.275 54.231,-54.23 0,-0.923 -0.092,-1.83 -0.142,-2.745 21.897,-5.987 38.021,-25.963 38.021,-49.756 0,-12.616 -4.541,-24.159 -12.043,-33.124 13.783,-13.441 22.365,-32.186 22.365,-52.96 z"
         fill="transparent"
         inkscape:connector-curvature="0"
         style="stroke:white;stroke-width:22;fill:none;opacity:1;stroke-opacity:1" />
    </g>
  </g>
</svg>
