<svg xmlns="http://www.w3.org/2000/svg" x="0px" y="0px" viewBox="30 50 230 230">



<g>
	<g>
		<path fill="white" d="M210.4,91h-7.8h-7.8c-2.6,0-4.7-2.4-4.7-5.4v-7v-7c0-9.8-7.6-17.8-17.1-17.8h-7.8H95.6c-9.4,0-17.1,8-17.1,17.8v162.8
			c0,9.8,7.6,17.8,17.1,17.8h114.7c9.4,0,17.1-8,17.1-17.8V115.8v-7C227.4,99,219.8,91,210.4,91z M215,115.8v118.6
			c0,3-2.1,5.4-4.7,5.4H95.6c-2.6,0-4.7-2.4-4.7-5.4V71.6c0-3,2.1-5.4,4.7-5.4h69.8h7.8c2.6,0,4.7,2.4,4.7,5.4v7v7
			c0,9.8,7.6,17.8,17.1,17.8h7.8h7.8c2.6,0,4.7,2.4,4.7,5.4V115.8z M109.6,115.8h49.6c3.4,0,6.2-2.8,6.2-6.2c0-3.4-2.8-6.2-6.2-6.2
			h-49.6c-3.4,0-6.2,2.8-6.2,6.2C103.4,113,106.2,115.8,109.6,115.8z M196.4,128.2h-86.8c-3.4,0-6.2,2.8-6.2,6.2
			c0,3.4,2.8,6.2,6.2,6.2h86.8c3.4,0,6.2-2.8,6.2-6.2C202.6,131,199.8,128.2,196.4,128.2z M196.4,153h-86.8c-3.4,0-6.2,2.8-6.2,6.2
			c0,3.4,2.8,6.2,6.2,6.2h86.8c3.4,0,6.2-2.8,6.2-6.2C202.6,155.8,199.8,153,196.4,153z M196.4,177.8h-86.8c-3.4,0-6.2,2.8-6.2,6.2
			c0,3.4,2.8,6.2,6.2,6.2h86.8c3.4,0,6.2-2.8,6.2-6.2C202.6,180.6,199.8,177.8,196.4,177.8z M196.4,202.6h-86.8
			c-3.4,0-6.2,2.8-6.2,6.2c0,3.4,2.8,6.2,6.2,6.2h86.8c3.4,0,6.2-2.8,6.2-6.2C202.6,205.4,199.8,202.6,196.4,202.6z"/>
	</g>
</g>
</svg>
