<svg xmlns="http://www.w3.org/2000/svg" viewBox="0 0 52 52">


	

	<path fill="white" d="M13.6 11.2H36c.5 0 .8-.4.8-.8 0-.5-.4-.8-.8-.8H13.6c-.5 0-.8.4-.8.8s.4.8.8.8zM32.7 27.4c0-4.3-3.5-7.8-7.8-7.8s-7.8 3.5-7.8 7.8 3.5 7.8 7.8 7.8 7.8-3.5 7.8-7.8zM25 33.5c-2.2 0-4.1-1.1-5.2-2.9h10.3c-1.1 1.8-3 2.9-5.1 2.9zm-6.2-6.1c0-1.2.3-2.3.9-3.2h10.4c.6.9.9 2 .9 3.2 0 .6-.1 1.1-.2 1.6H19c-.1-.5-.2-1.1-.2-1.6zm2.5-4.9c1-.8 2.3-1.2 3.7-1.2s2.7.5 3.7 1.2h-7.4z"/>

	<path fill="white" d="M46.3 43.3l-4.2-4.2V6.7c0-2.5-2-4.5-4.5-4.5H12.1c-2.5 0-4.5 2-4.5 4.5v33.1c0 2.5 2 4.5 4.5 4.5h24.3l4.5 4.5c.7.7 1.7 1.1 2.7 1.1 1 0 2-.4 2.7-1.1 1.4-1.6 1.4-4 0-5.5zm-34.2-.7c-1.5 0-2.8-1.3-2.8-2.8V6.7c0-1.5 1.3-2.8 2.8-2.8h25.5c1.5 0 2.8 1.3 2.8 2.8v30.8l-1.1-1.1c-.7-.7-1.7-1.1-2.7-1.1-.7 0-1.4.2-2 .6l-1.1-1.1c1-1.2 1.8-2.5 2.2-4.1h.3c.5 0 .8-.4.8-.8s-.3-.8-.8-.8c.1-.5.1-1.1.1-1.6 0-1.1-.2-2.2-.5-3.2h.4c.5 0 .8-.4.8-.8s-.4-.8-.8-.8h-.9c-1-2-2.5-3.7-4.5-4.8H36c.5 0 .8-.4.8-.8 0-.5-.4-.8-.8-.8H13.6c-.5 0-.8.4-.8.8 0 .5.4.8.8.8h5.7c-1.9 1.1-3.5 2.8-4.5 4.8h-1.2c-.5 0-.8.4-.8.8s.4.8.8.8h.6c-.3 1-.5 2.1-.5 3.2 0 .5 0 1.1.1 1.6h-.2c-.5 0-.8.4-.8.8s.4.8.8.8h.6c.6 1.9 1.6 3.5 3 4.8h-3.6c-.5 0-.8.4-.8.8 0 .5.4.8.8.8h5.8c1.6.9 3.5 1.5 5.6 1.5 2.8 0 5.4-1 7.3-2.7l1.1 1.1c-.9 1.5-.8 3.4.5 4.7l.9.9H12.1zM25 36.9c-5.3 0-9.6-4.3-9.6-9.6s4.3-9.6 9.6-9.6 9.6 4.3 9.6 9.6c-.1 5.3-4.4 9.6-9.6 9.6zm20.1 10.6c-.3.3-.7.5-1.1.6h-.8c-.4-.1-.8-.3-1.1-.6l-7-7c-.8-.8-.8-2.2 0-3l.3-.3c.2-.2.5-.3.8-.3h.4c.3 0 .6.1.8.2.3.1.5.3.7.5l7 7c.8.7.8 2.1 0 2.9z"/>

</svg>