<svg xmlns="http://www.w3.org/2000/svg" viewBox="3 5 45 45">


	<path fill="white" d="M26 46.7C14.6 46.7 5.3 37.4 5.3 26 5.3 14.6 14.6 5.3 26 5.3S46.7 14.6 46.7 26c0 11.4-9.3 20.7-20.7 20.7zm0-39.4C15.7 7.3 7.3 15.7 7.3 26S15.7 44.7 26 44.7c10.3 0 18.7-8.4 18.7-18.7S36.3 7.3 26 7.3z"/>


	<path fill="white" d="M25.7 14.8h1.1c.4 0 .7.3.6.7v1.6c1.4.2 2.8.7 4 1.4.8.5 1.1 1.5.6 2.3l-.1.2c-.3.5-.9.8-1.4.8-.3 0-.6-.1-.8-.2-.7-.4-1.5-.7-2.3-.9l-.1 3.3c2.8.6 6 1.7 5.9 5.6 0 2.8-2.2 4.9-6.1 5.3v1.3c0 .4-.3.6-.7.6h-1.1c-.4 0-.7-.3-.6-.7v-1.3c-1.8-.2-3.6-.7-5.2-1.7-.7-.5-1-1.5-.5-2.3l.3-.4c.3-.5.9-.8 1.4-.8.3 0 .6.1.9.3 1 .6 2.1 1.1 3.2 1.3l.1-3.6C22.1 27 19 26 19 22.2c0-2.6 2.2-4.9 6-5.2v-1.5c0-.4.3-.7.7-.7m-.8 8.5v-2.8c-1 .2-1.7.8-1.7 1.5.1.7.7 1 1.7 1.3m2.3 7.9c1.1-.2 1.7-.8 1.7-1.7 0-.7-.7-1.1-1.6-1.4l-.1 3.1m-1.5-18.4c-1.4 0-2.6 1.1-2.6 2.5-4.1 1-6 4-6.1 6.9 0 2.8 1.2 4.5 2.8 5.6-.9.2-1.7.8-2.2 1.6l-.3.4c-1 1.6-.6 3.9 1.1 5h.1c1.3.8 2.8 1.4 4.3 1.7.2 1.3 1.3 2.2 2.6 2.2h1.1c1.3 0 2.4-1 2.6-2.3 3.7-.9 6.1-3.5 6.2-6.9.1-3.2-1.6-5-3.4-6.1.7-.3 1.4-.8 1.8-1.5l.1-.2c1-1.8.4-4-1.3-5-.9-.5-1.9-1-3-1.3 0-.7-.3-1.3-.7-1.8-.5-.5-1.2-.8-1.9-.8h-1.2z"/></svg>