<svg xmlns="http://www.w3.org/2000/svg" viewBox="5 0 50 50">


	<path fill="transparent" stroke="white" stroke-width="1.5" d="M2.386 31.98V2.92A2.917 2.917 0 0 1 5.3 0h28.916a2.917 2.917 0 0 1 2.91 2.92v29.06a.976.976 0 0 1-.97.98h-32.8a.976.976 0 0 1-.97-.98zm23.35 9.96a6.038 6.038 0 1 1-6.037-6.07 6.053 6.053 0 0 1 6.036 6.07zm-3.018 0a3.02 3.02 0 1 0-3.02 3.03 3.028 3.028 0 0 0 3.02-3.03zm-8.22-6.07H.97a.976.976 0 0 0-.97.98v2.95a.976.976 0 0 0 .97.98h10.844a8.024 8.024 0 0 1 2.686-4.91zm42.828 6.07a6.038 6.038 0 1 1-6.037-6.07 6.053 6.053 0 0 1 6.035 6.07zm-3.018 0a3.02 3.02 0 1 0-3.02 3.03 3.03 3.03 0 0 0 3.02-3.03zM68 36.85v2.95a.976.976 0 0 1-.97.98h-7.857a7.96 7.96 0 0 0-15.77 0h-15.82a8.017 8.017 0 0 0-2.683-4.91h15V8a1.944 1.944 0 0 1 1.94-1.95H51a7.745 7.745 0 0 1 6.434 3.43l5.905 8.79a7.78 7.78 0 0 1 1.327 4.36v13.24h2.362a.976.976 0 0 1 .97.98zm-9.844-18.36l-4.722-6.74a.965.965 0 0 0-.794-.41h-7.366a.967.967 0 0 0-.97.97v6.74a.976.976 0 0 0 .97.98h12.09a.977.977 0 0 0 .792-1.54z"/>

</svg>
